<svg xmlns="http://www.w3.org/2000/svg" viewBox="0 0 122.88 122.89" style="enable-background:new 0 0 122.88 122.89"
	xml:space="preserve">
	<path fill="currentColor"
		d="M11.56 0h99.75c3.18 0 6.07 1.3 8.17 3.4 2.1 2.1 3.4 4.99 3.4 8.17v99.75c0 3.18-1.3 6.07-3.4 8.17-2.09 2.09-4.99 3.4-8.17 3.4H11.56c-3.18 0-6.07-1.3-8.17-3.4C1.3 117.39 0 114.5 0 111.32V11.56C0 8.38 1.3 5.49 3.4 3.4 5.49 1.3 8.38 0 11.56 0zm45.67 72.48c-1.52-.48-2.91-1.24-4.19-2.3-1.36-1.13-2.58-2.57-3.66-4.36a30.931 30.931 0 0 1-3.93-.05c-3.42-.25-6-1.19-8.57-2.12-1.67-.61-3.34-1.21-5.15-1.58-.65-.13-1.23-.14-1.74-.08-.87.13-1.55.56-2.06 1.19-.58.7-.97 1.66-1.18 2.7-.23 1.15-.25 2.41-.07 3.59.16 1.05.46 2.12.84 3.16.39 1.08.87 2.12 1.38 3.09.46.9.98 1.75 1.55 2.56.57.82 1.2 1.61 1.86 2.36 2.23 2.54 4.54 4.26 6.82 5.21 2.08.87 4.15 1.08 6.12.72 1.99-.37 3.9-1.35 5.65-2.89 2.25-1.97 4.22-4.84 5.75-8.54.26-.62.41-1.25.49-1.89.07-.23.09-.5.09-.77zm16.75-6.66c-.6 1.47-1.48 2.79-2.65 3.98-1.24 1.26-2.78 2.35-4.66 3.27-.02.5-.04.97-.09 1.43-.06.8-.16 1.63-.3 2.48-.54 3.38-1.69 5.88-2.84 8.36-.75 1.62-1.49 3.22-2.01 4.99a5.01 5.01 0 0 0-.22 1.73c.06.88.43 1.59 1.01 2.15.65.64 1.57 1.11 2.59 1.41 1.13.33 2.38.46 3.57.38 1.06-.07 2.15-.28 3.22-.57 1.11-.3 2.18-.69 3.2-1.12.94-.39 1.83-.83 2.68-1.33.87-.5 1.7-1.06 2.51-1.65 2.72-2 4.62-4.16 5.77-6.35 1.04-2 1.44-4.05 1.24-6.04-.2-2.01-1.02-4-2.4-5.88-1.77-2.41-4.47-4.62-8.02-6.45-.59-.31-1.21-.52-1.84-.64a3.53 3.53 0 0 0-.76-.15zm-8.12-15.51c1.49.54 2.85 1.36 4.09 2.47 1.32 1.19 2.48 2.68 3.48 4.51.47 0 .95.01 1.43.03.86.03 1.68.09 2.49.18 3.38.39 5.93 1.43 8.47 2.48 1.63.66 3.25 1.33 5.09 1.78.02.01.03.01.06.02.62.15 1.18.18 1.67.13.88-.09 1.57-.5 2.11-1.1.6-.68 1.03-1.62 1.29-2.66.28-1.14.34-2.4.22-3.58-.11-1.07-.37-2.14-.7-3.2a24.92 24.92 0 0 0-1.26-3.15c-.43-.91-.92-1.79-1.45-2.62-.53-.82-1.12-1.63-1.76-2.43-2.12-2.63-4.36-4.43-6.6-5.47-2.04-.94-4.11-1.25-6.09-.97-2 .29-3.95 1.19-5.77 2.65-2.33 1.87-4.42 4.67-6.09 8.29-.28.61-.46 1.24-.57 1.87-.06.24-.09.5-.11.77zm2.22 5.29a8.487 8.487 0 0 0-6.02-2.49c-2.35 0-4.48.95-6.02 2.49-1.54 1.54-2.49 3.67-2.49 6.02s.95 4.48 2.49 6.01a8.487 8.487 0 0 0 6.02 2.49c2.35 0 4.48-.96 6.02-2.49 1.54-1.54 2.49-3.67 2.49-6.01s-.96-4.49-2.49-6.02zm-17.72 1.73c.53-1.5 1.35-2.86 2.45-4.1 1.17-1.31 2.67-2.47 4.5-3.48 0-.48 0-.95.02-1.43.03-.85.09-1.68.18-2.49.38-3.4 1.42-5.95 2.45-8.48.67-1.65 1.34-3.3 1.78-5.09.16-.64.2-1.22.14-1.73-.09-.87-.51-1.57-1.11-2.11-.69-.61-1.62-1.03-2.66-1.28-1.14-.27-2.4-.34-3.58-.21-1.07.12-2.15.37-3.2.71-1.07.34-2.13.78-3.15 1.26-.91.43-1.78.92-2.62 1.46-.85.55-1.66 1.13-2.42 1.76-2.63 2.13-4.43 4.37-5.47 6.63-.94 2.04-1.25 4.11-.95 6.08.29 2 1.19 3.95 2.66 5.76 1.88 2.32 4.68 4.41 8.31 6.08.61.28 1.24.46 1.86.56.27.05.54.08.81.1zm11.08-41.94c25.44 0 46.06 20.62 46.06 46.06s-20.62 46.06-46.06 46.06-46.06-20.62-46.06-46.06S36 15.39 61.44 15.39zm46.62-5.83a5.84 5.84 0 0 1 0 11.68c-3.22 0-5.84-2.62-5.84-5.84a5.84 5.84 0 0 1 5.84-5.84zm-93.25 0a5.84 5.84 0 1 1 0 11.68 5.84 5.84 0 0 1 0-11.68zm93.25 92.17c3.23 0 5.84 2.62 5.84 5.84s-2.62 5.84-5.84 5.84c-3.22 0-5.84-2.62-5.84-5.84s2.62-5.84 5.84-5.84zm-87.4 5.84a5.84 5.84 0 0 1-11.68 0c0-3.22 2.62-5.84 5.84-5.84 3.22 0 5.84 2.62 5.84 5.84z"
		style="fill-rule:evenodd;clip-rule:evenodd" />
</svg>