<svg xmlns="http://www.w3.org/2000/svg" viewBox="0 0 490 350">
    <!-- Created by Andi Nur Abdi from The Noun Project -->
    <path fill="currentColor"
        d="M52.5 350h385a52.51 52.51 0 0 0 37.125-15.375A52.51 52.51 0 0 0 490 297.5v-245a52.51 52.51 0 0 0-15.375-37.125A52.51 52.51 0 0 0 437.5 0h-385a52.51 52.51 0 0 0-37.125 15.375A52.51 52.51 0 0 0 0 52.5v245a52.51 52.51 0 0 0 15.375 37.125A52.51 52.51 0 0 0 52.5 350ZM35 297.5v-36.051l192.5.438V315h-175c-4.64 0-9.094-1.844-12.375-5.125A17.504 17.504 0 0 1 35 297.5ZM437.5 315h-175v-53.023l192.5.523v35c0 4.641-1.844 9.094-5.125 12.375A17.504 17.504 0 0 1 437.5 315zM52.5 35h385c4.64 0 9.094 1.844 12.375 5.125A17.504 17.504 0 0 1 455 52.5v175l-420-1.05V52.5c0-4.641 1.844-9.095 5.125-12.376A17.504 17.504 0 0 1 52.5 35z" />
</svg>