<svg xmlns="http://www.w3.org/2000/svg" viewBox="0 0 640 512"><path fill="#819aff" d="M320 352c53.02 0 96-42.98 96-96V96c0-53.02-42.98-96-96-96s-96 42.98-96 96v160c0 53.02 42.98 96 96 96zm160-160h-16c-8.84 0-16 7.16-16 16v48c0 74.8-64.49 134.82-140.79 127.38C240.71 376.89 192 317.11 192 250.3V208c0-8.84-7.16-16-16-16h-16c-8.84 0-16 7.16-16 16v40.16c0 89.64 63.97 169.55 152 181.69V464h-56c-8.84 0-16 7.16-16 16v16c0 8.84 7.16 16 16 16h160c8.84 0 16-7.16 16-16v-16c0-8.84-7.16-16-16-16h-56v-33.77C429.71 418.47 496 344.9 496 256v-48c0-8.84-7.16-16-16-16z"/></svg>